# Blender v2.82 (sub 7) OBJ File: ''
# www.blender.org
mtllib spike.mtl
o Icosphere_Icosphere.001
v -0.009117 0.602627 0.560072
v 0.736617 0.110202 -0.152616
v -0.557075 1.935398 -0.024319
v 0.621759 -0.742728 -0.502453
v 1.152708 -1.116884 -0.512004
v -0.850048 -0.650539 0.271212
v -0.051732 -0.772377 0.925339
v 1.058069 -0.771131 -0.184327
v 0.420223 -1.291918 -1.194228
v -0.576249 1.355132 -0.545406
v -0.106993 1.357228 -0.332524
v -0.355897 0.063175 -0.418089
v -0.951089 -1.490417 0.119858
v -0.704695 -0.637173 0.117329
v -0.968581 -1.546310 -0.581320
v -0.464290 -1.629625 1.143555
v -1.040422 -1.730056 0.839140
v -0.906119 -1.966837 0.791209
v 1.535835 -1.294204 -0.356686
v 1.316257 -1.218487 0.345877
v 1.491012 -1.522586 -0.269483
v 0.100059 -0.608568 -0.704014
v -0.623807 -0.751692 -0.368922
v -0.961950 -1.638622 -0.249984
v 0.697738 -1.820451 1.145840
v 0.690370 -1.332467 -0.965202
v -0.136023 -0.975230 -0.842756
v 0.299159 -1.408579 -1.213116
v -0.027811 -1.458152 -1.025022
v -0.891649 -1.623528 -0.697181
v -0.483035 -1.266674 -0.776691
v -0.761449 -1.679911 -0.660925
v -0.867873 -1.741436 -0.033778
v -0.961264 -1.714548 -0.574867
v -0.650811 -1.680075 -0.097356
v 1.259737 -1.628689 0.254070
v -0.320135 -1.925826 0.901906
v 0.472578 -1.496892 -0.273972
v 0.461434 -1.438293 -1.235898
v 0.782991 -1.436896 -0.753210
v 0.373855 -1.455010 -1.024438
v -0.215223 -1.505849 -0.802274
vt 0.818181 0.000000
vt 0.772726 0.078731
vt 0.863635 0.078731
vt 0.727272 0.157461
vt 0.681818 0.078731
vt 0.636363 0.157461
vt 0.090909 0.000000
vt 0.045454 0.078731
vt 0.136363 0.078731
vt 0.272727 0.000000
vt 0.227273 0.078731
vt 0.318182 0.078731
vt 0.454545 0.000000
vt 0.409090 0.078731
vt 0.500000 0.078731
vt 0.681818 0.236191
vt 0.909090 0.157461
vt 0.818181 0.157461
vt 0.863635 0.236191
vt 0.181818 0.157461
vt 0.090909 0.157461
vt 0.136363 0.236191
vt 0.363636 0.157461
vt 0.272727 0.157461
vt 0.318182 0.236191
vt 0.545454 0.157461
vt 0.454545 0.157461
vt 0.500000 0.236191
vt 0.772726 0.236191
vt 0.954545 0.236191
vt 0.227273 0.236191
vt 0.409090 0.236191
vt 0.590909 0.236191
vt 0.818181 0.314921
vt 0.727272 0.314921
vt 0.772726 0.393651
vt 1.000000 0.314921
vt 0.909091 0.314921
vt 0.954545 0.393651
vt 0.272727 0.314921
vt 0.181818 0.314921
vt 0.227273 0.393651
vt 0.454545 0.314921
vt 0.363636 0.314921
vt 0.409090 0.393651
vt 0.636363 0.314921
vt 0.545454 0.314921
vt 0.590909 0.393651
vt 0.500000 0.393651
vt 0.545454 0.472382
vt 0.318182 0.393651
vt 0.363636 0.472382
vt 0.136363 0.393651
vt 0.181818 0.472382
vt 0.090909 0.314921
vt 0.863635 0.393651
vt 0.909090 0.472382
vt 0.681818 0.393651
vt 0.727272 0.472382
vt 0.045454 0.236191
vt 0.000000 0.157461
vt 0.590909 0.078731
vt 0.636363 0.000000
vn 0.7478 0.4993 0.4375
vn 0.2257 0.3435 -0.9116
vn -0.5195 0.1549 0.8403
vn -0.5972 0.2232 0.7704
vn 0.6974 0.1637 0.6977
vn 0.4379 0.6376 -0.6338
vn 0.4131 -0.0193 -0.9105
vn -0.9607 0.2774 0.0019
vn -0.3779 -0.3848 0.8421
vn 0.9499 -0.0702 0.3045
vn 0.4134 0.6506 -0.6370
vn 0.0760 -0.0849 -0.9935
vn -0.9996 0.0138 0.0238
vn -0.1078 -0.6473 0.7546
vn 0.5495 -0.3900 -0.7389
vn -0.5112 0.2009 -0.8357
vn 0.1136 -0.3383 -0.9342
vn 0.2463 -0.9650 -0.0905
vn 0.0505 -0.9487 -0.3120
vn 0.0756 -0.9960 -0.0475
vn 0.0619 -0.9960 -0.0637
vn 0.0885 -0.9938 -0.0671
vn -0.0573 -0.9854 -0.1605
vn 0.1346 -0.9781 -0.1586
vn 0.1130 -0.9555 -0.2724
vn 0.1804 -0.9396 -0.2908
vn 0.2897 -0.9554 -0.0571
vn 0.1576 -0.9870 -0.0312
vn -0.1466 -0.7518 -0.6429
vn 0.3183 -0.9458 0.0653
vn -0.4583 0.0604 -0.8867
vn -0.3802 0.2508 -0.8903
vn 0.0080 -0.9792 -0.2030
vn 0.0079 -0.9703 -0.2419
vn -0.1994 -0.9669 -0.1590
vn 0.7771 -0.3595 -0.5166
vn 0.2519 -0.8200 -0.5140
vn 0.0131 -0.9811 -0.1930
vn 0.1324 -0.9829 -0.1279
vn -0.0457 -0.8334 0.5508
vn 0.1157 -0.9595 -0.2568
vn -0.8451 -0.5210 0.1200
vn -0.9990 -0.0431 0.0080
vn -0.8488 -0.0571 -0.5256
vn -0.5235 0.4364 -0.7318
vn -0.7953 0.2276 -0.5619
vn -0.3970 0.2742 -0.8759
vn -0.2440 0.4767 -0.8445
vn -0.3081 0.4550 -0.8355
vn -0.0897 0.2492 -0.9643
vn -0.0646 0.9832 0.1707
vn 0.8505 -0.3337 0.4065
vn 0.1212 0.7459 0.6550
vn -0.3740 -0.8901 -0.2605
vn -0.8740 -0.4749 -0.1028
vn -0.9774 0.2045 -0.0533
vn -0.5874 0.4369 -0.6812
vn -0.8630 0.4405 -0.2473
vn -0.9861 0.0084 -0.1660
vn -0.0331 0.3723 -0.9275
vn -0.3781 0.1333 -0.9161
vn 0.3990 0.2107 -0.8924
vn 0.6322 0.3716 -0.6799
vn 0.6522 0.1592 -0.7411
vn 0.5070 0.4535 -0.7330
vn 0.7548 0.6342 0.1676
vn 0.4420 0.7800 0.4429
vn 0.4008 0.0401 0.9153
vn -0.4796 0.4261 0.7671
vn -0.5161 0.4683 0.7171
vn -0.9880 0.1330 -0.0784
vn -0.7202 0.2060 -0.6624
vn -0.7271 0.0039 -0.6865
vn -0.9981 0.0559 -0.0255
vn 0.5239 0.6571 -0.5420
vn 0.9343 0.3441 -0.0933
vn 0.7504 0.2517 0.6112
vn 0.3194 0.6273 -0.7103
vn 0.8137 0.5682 0.1225
vn 0.5458 0.2540 -0.7985
usemtl None
s 1
f 1/1/1 2/2/1 3/3/1
f 4/4/2 2/5/2 5/6/2
f 1/7/3 3/8/3 6/9/3
f 1/10/4 6/11/4 7/12/4
f 1/13/5 7/14/5 8/15/5
f 4/4/6 5/6/6 9/16/6
f 10/17/7 11/18/7 12/19/7
f 13/20/8 14/21/8 15/22/8
f 16/23/9 17/24/9 18/25/9
f 19/26/10 20/27/10 21/28/10
f 4/4/11 9/16/11 22/29/11
f 10/17/12 12/19/12 23/30/12
f 13/20/13 15/22/13 24/31/13
f 16/23/14 18/25/14 25/32/14
f 19/26/15 21/28/15 26/33/15
f 27/34/16 28/35/16 29/36/16
f 30/37/17 31/38/17 32/39/17
f 33/40/18 34/41/18 35/42/18
f 36/43/19 37/44/19 38/45/19
f 39/46/20 40/47/20 41/48/20
f 41/48/21 38/49/21 42/50/21
f 41/48/22 40/47/22 38/49/22
f 40/47/23 36/43/23 38/49/23
f 38/45/24 35/51/24 42/52/24
f 38/45/25 37/44/25 35/51/25
f 37/44/26 33/40/26 35/51/26
f 35/42/27 32/53/27 42/54/27
f 35/42/28 34/41/28 32/53/28
f 34/41/29 30/55/29 32/53/29
f 32/39/30 29/56/30 42/57/30
f 32/39/31 31/38/31 29/56/31
f 31/38/32 27/34/32 29/56/32
f 29/36/33 41/58/33 42/59/33
f 29/36/34 28/35/34 41/58/34
f 28/35/35 39/46/35 41/58/35
f 26/33/36 40/47/36 39/46/36
f 26/33/37 21/28/37 40/47/37
f 21/28/38 36/43/38 40/47/38
f 25/32/39 37/44/39 36/43/39
f 25/32/40 18/25/40 37/44/40
f 18/25/41 33/40/41 37/44/41
f 24/31/42 34/41/42 33/40/42
f 24/31/43 15/22/43 34/41/43
f 15/22/44 30/55/44 34/41/44
f 23/30/45 31/38/45 30/37/45
f 23/30/46 12/19/46 31/38/46
f 12/19/47 27/34/47 31/38/47
f 22/29/48 28/35/48 27/34/48
f 22/29/49 9/16/49 28/35/49
f 9/16/50 39/46/50 28/35/50
f 21/28/51 25/32/51 36/43/51
f 21/28/52 20/27/52 25/32/52
f 20/27/53 16/23/53 25/32/53
f 18/25/54 24/31/54 33/40/54
f 18/25/55 17/24/55 24/31/55
f 17/24/56 13/20/56 24/31/56
f 15/22/57 23/60/57 30/55/57
f 15/22/58 14/21/58 23/60/58
f 14/21/59 10/61/59 23/60/59
f 12/19/60 22/29/60 27/34/60
f 12/19/61 11/18/61 22/29/61
f 11/18/62 4/4/62 22/29/62
f 9/16/63 26/33/63 39/46/63
f 9/16/64 5/6/64 26/33/64
f 5/6/65 19/26/65 26/33/65
f 8/15/66 20/27/66 19/26/66
f 8/15/67 7/14/67 20/27/67
f 7/14/68 16/23/68 20/27/68
f 7/12/69 17/24/69 16/23/69
f 7/12/70 6/11/70 17/24/70
f 6/11/71 13/20/71 17/24/71
f 6/9/72 14/21/72 13/20/72
f 6/9/73 3/8/73 14/21/73
f 3/8/74 10/61/74 14/21/74
f 5/6/75 8/62/75 19/26/75
f 5/6/76 2/5/76 8/62/76
f 2/5/77 1/63/77 8/62/77
f 3/3/78 11/18/78 10/17/78
f 3/3/79 2/2/79 11/18/79
f 2/2/80 4/4/80 11/18/80
