# Blender v2.82 (sub 7) OBJ File: ''
# www.blender.org
mtllib seat.mtl
o Cube.001_Cube.003
v -0.062500 -0.500000 0.062500
v -0.062500 -0.062500 0.062500
v -0.062500 -0.500000 -0.062500
v -0.062500 -0.062500 -0.062500
v 0.062500 -0.500000 0.062500
v 0.062500 -0.062500 0.062500
v 0.062500 -0.500000 -0.062500
v 0.062500 -0.062500 -0.062500
v -0.125000 -0.062500 0.125000
v -0.125000 0.000000 0.125000
v -0.125000 -0.062500 -0.125000
v -0.125000 0.000000 -0.125000
v 0.125000 -0.062500 0.125000
v 0.125000 0.000000 0.125000
v 0.125000 -0.062500 -0.125000
v 0.125000 0.000000 -0.125000
vt 0.562500 0.625000
vt 0.125000 0.625000
vt 0.125000 0.562500
vt 0.562500 0.562500
vt 0.562500 0.625000
vt 0.562500 0.687500
vt 0.125000 0.687500
vt 0.125000 0.625000
vt 0.125000 0.687500
vt 0.562500 0.687500
vt 0.562500 0.750000
vt 0.125000 0.750000
vt 0.125000 0.562500
vt 0.125000 0.500000
vt 0.562500 0.500000
vt 0.562500 0.562500
vt 0.125000 0.750000
vt 0.000000 0.750000
vt 0.000000 0.625000
vt 0.125000 0.625000
vt 0.625000 0.562500
vt 1.000000 0.437500
vt 1.000000 1.000000
vt 0.562500 0.812500
vt 0.750000 0.875000
vt 0.500000 0.875000
vt 0.500000 0.812500
vt 0.750000 0.812500
vt 0.750000 0.937500
vt 0.500000 0.937500
vt 0.500000 0.875000
vt 0.750000 0.875000
vt 0.750000 1.000000
vt 0.500000 1.000000
vt 0.500000 0.937500
vt 0.750000 0.937500
vt 0.500000 0.812500
vt 0.500000 0.750000
vt 0.750000 0.750000
vt 0.750000 0.812500
vt 0.500000 1.000000
vt 0.250000 1.000000
vt 0.250000 0.750000
vt 0.500000 0.750000
vt 0.250000 0.750000
vt 0.250000 1.000000
vt 0.000000 1.000000
vt 0.000000 0.750000
vn -1.0000 0.0000 0.0000
vn 0.0000 0.0000 -1.0000
vn 1.0000 0.0000 0.0000
vn 0.0000 0.0000 1.0000
vn 0.0000 -1.0000 0.0000
vn 0.0000 1.0000 0.0000
usemtl None
s off
f 1/1/1 2/2/1 4/3/1 3/4/1
f 3/5/2 4/6/2 8/7/2 7/8/2
f 7/9/3 8/10/3 6/11/3 5/12/3
f 5/13/4 6/14/4 2/15/4 1/16/4
f 3/17/5 7/18/5 5/19/5 1/20/5
f 8/21/6 4/22/6 2/23/6 6/24/6
f 9/25/1 10/26/1 12/27/1 11/28/1
f 11/29/2 12/30/2 16/31/2 15/32/2
f 15/33/3 16/34/3 14/35/3 13/36/3
f 13/37/4 14/38/4 10/39/4 9/40/4
f 11/41/5 15/42/5 13/43/5 9/44/5
f 16/45/6 12/46/6 10/47/6 14/48/6
