# Blender v2.82 (sub 7) OBJ File: ''
# www.blender.org
mtllib landing_leg.mtl
o Cube.012
v 0.092655 0.882851 -5.390448
v 0.125000 0.062500 -0.062500
v 0.062500 0.062500 -0.062500
v 0.125000 0.000000 -0.062500
v -0.062500 0.062500 -0.062500
v -0.062500 0.000000 0.000000
v -0.062500 -0.000000 0.062500
v 0.062500 -0.000000 0.062500
v 0.062500 -0.375000 -0.000000
v 0.062500 -0.437500 -0.000000
v 0.062500 -0.500000 -0.000000
v -0.062500 -0.437500 0.062500
v -0.062500 -0.500000 0.062500
v -0.062500 -0.375000 -0.000000
v 0.062500 0.000000 0.000000
v -0.062500 0.062500 0.062500
v -0.062500 0.437500 0.125000
v -0.125000 0.437500 0.062500
v -0.125000 0.437500 -0.062500
v 0.125000 0.500000 0.125000
v 0.125000 0.437500 0.125000
v 0.125000 0.437500 0.062500
v -0.125000 0.500000 0.125000
v -0.125000 0.437500 0.125000
v -0.125000 0.500000 -0.125000
v -0.125000 0.437500 -0.125000
v 0.125000 0.500000 -0.125000
v 0.125000 0.437500 -0.125000
v -0.062500 -0.437500 -0.000000
v -0.125000 -0.437500 -0.000000
v -0.125000 -0.500000 -0.000000
v -0.062500 -0.500000 -0.000000
v 0.125000 -0.437500 -0.000000
v 0.125000 -0.500000 -0.000000
v 0.062500 -0.437500 0.062500
v 0.062500 -0.437500 0.125000
v 0.062500 -0.500000 0.062500
v -0.125000 -0.437500 0.187500
v -0.062500 -0.500000 0.187500
v -0.125000 -0.500000 0.187500
v -0.062500 -0.500000 0.125000
v -0.062500 -0.437500 0.125000
v -0.062500 -0.437500 0.187500
v 0.062500 -0.500000 0.125000
v 0.062500 -0.437500 0.187500
v 0.125000 -0.437500 0.187500
v 0.125000 -0.500000 0.187500
v 0.062500 -0.500000 -0.062500
v -0.062500 -0.500000 -0.062500
v 0.062500 -0.375000 -0.062500
v 0.000000 -0.375000 -0.062500
v 0.000000 -0.375000 -0.000000
v 0.062500 -0.437500 -0.062500
v -0.062500 -0.375000 -0.062500
v -0.062500 0.437500 -0.062500
v 0.125000 0.437500 -0.062500
v 0.062500 0.437500 -0.125000
v 0.062500 0.437500 -0.062500
v -0.062500 0.437500 -0.125000
v -0.062500 0.437500 0.062500
v 0.062500 0.437500 0.062500
v 0.062500 0.437500 0.125000
v -0.062500 -0.437500 0.250000
v -0.062500 -0.500000 0.250000
v 0.062500 -0.437500 0.250000
v 0.062500 -0.500000 0.250000
v 0.062500 -0.500000 0.187500
v 0.125000 0.062500 0.062500
v 0.125000 -0.000000 0.062500
v 0.062500 0.062500 0.062500
v 0.062500 0.062500 0.125000
v 0.062500 -0.000000 0.125000
v -0.062500 0.062500 0.125000
v -0.062500 -0.000000 0.125000
v -0.125000 0.062500 0.062500
v -0.125000 -0.000000 0.062500
v -0.125000 0.062500 -0.062500
v -0.125000 0.000000 -0.062500
v -0.062500 0.312500 0.125000
v -0.062500 0.312500 0.062500
v 0.062500 0.312500 0.125000
v 0.062500 0.312500 0.062500
v -0.125000 0.312500 0.062500
v -0.125000 0.312500 -0.062500
v -0.062500 0.312500 -0.062500
v -0.062500 0.312500 -0.125000
v 0.062500 0.312500 -0.125000
v 0.062500 0.312500 -0.062500
v 0.125000 0.312500 -0.062500
v 0.125000 0.312500 0.062500
vt 0.125000 0.125000
vt 0.125000 0.093750
vt 0.125000 0.062500
vt 0.187500 0.062500
vt 0.187500 0.093750
vt 0.187500 0.125000
vt 0.343750 0.093750
vt 0.375000 0.093750
vt 0.375000 0.187500
vt 0.343750 0.187500
vt 0.343750 0.156250
vt 0.343750 0.125000
vt 0.281250 0.125000
vt 0.281250 0.156250
vt 0.281250 0.187500
vt 0.250000 0.187500
vt 0.250000 0.093750
vt 0.281250 0.093750
vt 0.281250 0.062500
vt 0.343750 0.062500
vt 0.093750 0.281250
vt 0.093750 0.500000
vt 0.031250 0.500000
vt 0.031250 0.281250
vt 0.031250 0.250000
vt 0.093750 0.250000
vt 0.375000 0.562500
vt 0.375000 0.625000
vt 0.343750 0.625000
vt 0.343750 0.562500
vt 0.406250 0.562500
vt 0.406250 0.625000
vt 0.500000 0.562500
vt 0.500000 0.625000
vt 0.468750 0.625000
vt 0.468750 0.562500
vt 0.125000 0.281250
vt 0.125000 0.312500
vt 0.125000 0.500000
vt 0.156250 0.562500
vt 0.156250 0.625000
vt 0.125000 0.625000
vt 0.125000 0.562500
vt 0.125000 0.781250
vt 0.125000 0.656250
vt 0.250000 0.656250
vt 0.250000 0.781250
vt 0.406250 0.218750
vt 0.406250 0.187500
vt 0.468750 0.187500
vt 0.468750 0.218750
vt 0.281250 0.562500
vt 0.281250 0.531250
vt 0.343750 0.531250
vt 0.343750 0.343750
vt 0.343750 0.281250
vt 0.375000 0.281250
vt 0.375000 0.343750
vt 0.281250 0.375000
vt 0.281250 0.500000
vt 0.218750 0.500000
vt 0.218750 0.375000
vt 0.281250 0.343750
vt 0.250000 0.343750
vt 0.250000 0.281250
vt 0.281250 0.281250
vt 0.125000 0.031250
vt 0.187500 0.031250
vt 0.093750 0.625000
vt 0.093750 0.562500
vt 0.281250 0.625000
vt 0.250000 0.625000
vt 0.250000 0.562500
vt -0.000000 0.500000
vt 0.000000 0.312500
vt 0.000000 0.281250
vt 0.093750 0.093750
vt 0.125000 0.156250
vt 0.125000 0.187500
vt 0.093750 0.187500
vt 0.218750 0.531250
vt 0.218750 0.562500
vt 0.156250 0.531250
vt 0.250000 0.531250
vt 0.281250 0.531250
vt 0.281250 0.562500
vt 0.250000 0.562500
vt 0.406250 0.281250
vt 0.406250 0.312500
vt 0.468750 0.312500
vt 0.468750 0.281250
vt 0.500000 0.281250
vt 0.500000 0.343750
vt 0.343750 0.375000
vt 0.343750 0.500000
vt 0.125000 0.531250
vt 0.156250 0.531250
vt 0.156250 0.562500
vt 0.125000 0.562500
vt 0.000000 0.531250
vt 0.031250 0.531250
vt 0.031250 0.562500
vt 0.000000 0.562500
vt 0.375000 0.531250
vt 0.406250 0.531250
vt 0.406250 0.562500
vt 0.375000 0.562500
vt 0.187500 0.156250
vt 0.187500 0.187500
vt 0.187500 0.218750
vt 0.125000 0.218750
vt 0.218750 0.625000
vt 0.093750 0.093750
vt 0.062500 0.093750
vt 0.062500 0.187500
vt 0.093750 0.187500
vt 0.218750 0.187500
vt 0.250000 0.218750
vt 0.218750 0.218750
vt 0.062500 0.187500
vt 0.093750 0.187500
vt 0.093750 0.218750
vt 0.062500 0.218750
vt 0.406250 0.531250
vt 0.468750 0.531250
vt 0.093750 0.125000
vt 0.125000 0.125000
vt 0.125000 0.156250
vt 0.093750 0.156250
vt 0.218750 0.093750
vt 0.187500 0.125000
vt 0.218750 0.125000
vt 0.218750 0.156250
vt 0.187500 0.156250
vt 0.218750 0.062500
vt 0.250000 0.062500
vt 0.062500 0.062500
vt 0.093750 0.062500
vt 0.093750 0.093750
vt 0.062500 0.093750
vt 0.406250 0.500000
vt 0.406250 0.375000
vt 0.187500 0.281250
vt 0.156250 0.281250
vt 0.156250 0.250000
vt 0.125000 0.250000
vt 0.031250 0.562500
vt 0.031250 0.531250
vt 0.093750 0.531250
vt 0.500000 0.625000
vt 0.500000 0.656250
vt 0.375000 0.656250
vt 0.375000 0.625000
vt 0.406250 0.250000
vt 0.468750 0.250000
vt 0.468750 0.281250
vt 0.406250 0.281250
vt 0.187500 0.031250
vt 0.218750 0.031250
vt 0.218750 0.062500
vt 0.187500 0.062500
vt 0.093750 0.031250
vt 0.125000 0.031250
vt 0.125000 0.062500
vt 0.093750 0.062500
vt 0.343750 0.250000
vt 0.375000 0.250000
vt 0.375000 0.281250
vt 0.343750 0.281250
vt 0.406250 0.250000
vt 0.406250 0.218750
vt 0.468750 0.218750
vt 0.468750 0.250000
vt 0.375000 0.218750
vt 0.406250 0.218750
vt 0.406250 0.250000
vt 0.375000 0.250000
vt 0.468750 0.218750
vt 0.500000 0.218750
vt 0.500000 0.250000
vt 0.468750 0.250000
vt 0.187500 0.500000
vt 0.156250 0.312500
vt 0.187500 0.312500
vt 0.218750 0.250000
vt 0.250000 0.250000
vt 0.218750 0.281250
vt 0.218750 0.250000
vt 0.218750 0.281250
vt 0.218750 0.343750
vt 0.125000 0.093750
vt 0.125000 0.062500
vt 0.187500 0.062500
vt 0.187500 0.093750
vt 0.375000 0.375000
vt 0.500000 0.375000
vt 0.468750 0.375000
vt 0.468750 0.500000
vt 0.031250 0.625000
vt -0.000000 0.625000
vt -0.000000 0.562500
vt 0.125000 0.281250
vt 0.093750 0.281250
vt 0.093750 0.250000
vt 0.093750 0.218750
vt 0.312500 0.281250
vt 0.312500 0.343750
vt 0.250000 0.625000
vt 0.125000 0.625000
vt -0.000000 0.656250
vt -0.000000 0.625000
vn 0.0000 -1.0000 0.0000
vn 0.0000 1.0000 0.0000
vn 0.0000 -0.0000 1.0000
vn 0.0000 0.0000 -1.0000
vn 1.0000 0.0000 0.0000
vn -1.0000 -0.0000 0.0000
usemtl Material.001
s 1
f 44/1/1 67/2/1 66/3/1 64/4/1 39/5/1 41/6/1
f 45/7/2 46/8/2 33/9/2 10/10/2 35/11/2 36/12/2 42/13/2 12/14/2 29/15/2 30/16/2 38/17/2 43/18/2 63/19/2 65/20/2
f 35/21/3 8/22/3 7/23/3 12/24/3 13/25/3 37/26/3
f 88/27/4 58/28/4 56/29/4 89/30/4
f 87/31/5 57/32/5 58/28/5 88/27/5
f 85/33/6 55/34/6 59/35/6 86/36/6
f 10/37/5 9/38/5 15/39/5 8/22/5 35/21/5
f 79/40/6 17/41/6 60/42/6 80/43/6
f 25/44/2 23/45/2 20/46/2 27/47/2
f 16/48/2 73/49/2 71/50/2 70/51/2
f 90/52/1 82/53/1 88/54/1 89/30/1
f 2/55/5 68/56/5 69/57/5 4/58/5
f 16/59/6 80/60/6 85/61/6 5/62/6
f 5/63/2 77/64/2 75/65/2 16/66/2
f 66/3/3 65/67/3 63/68/3 64/4/3
f 80/43/3 60/42/3 18/69/3 83/70/3
f 90/52/3 22/71/3 61/72/3 82/73/3
f 12/24/6 7/23/6 6/74/6 14/75/6 29/76/6
f 47/77/1 67/2/1 44/1/1 37/78/1 11/79/1 34/80/1
f 82/81/1 81/82/1 79/40/1 80/83/1
f 61/84/1 22/85/1 21/86/1 62/87/1
f 4/58/1 69/57/1 8/88/1 15/89/1 6/90/1 7/91/1 76/92/1 78/93/1
f 16/59/3 70/94/3 82/95/3 80/60/3
f 18/96/1 60/97/1 17/98/1 24/99/1
f 26/100/1 59/101/1 55/102/1 19/103/1
f 57/104/1 28/105/1 56/106/1 58/107/1
f 11/79/1 37/78/1 13/108/1 32/109/1 49/110/1 48/111/1
f 82/73/5 61/72/5 62/112/5 81/82/5
f 46/113/5 47/114/5 34/115/5 33/116/5
f 31/117/4 30/16/4 29/118/4 32/119/4
f 11/120/4 10/121/4 33/122/4 34/123/4
f 86/36/1 87/31/1 88/124/1 85/125/1
f 44/126/6 36/127/6 35/128/6 37/129/6
f 40/130/6 38/17/6 30/16/6 31/117/6
f 13/131/5 12/132/5 42/133/5 41/134/5
f 39/135/3 43/136/3 38/17/3 40/130/3
f 13/108/1 41/6/1 39/5/1 40/130/1 31/117/1 32/109/1
f 47/137/3 46/138/3 45/139/3 67/140/3
f 88/141/5 82/95/5 70/94/5 3/142/5
f 54/143/4 51/144/4 50/145/4 53/146/4 48/111/4 49/110/4
f 84/147/1 85/148/1 80/149/1 83/70/1
f 59/35/4 26/150/4 25/151/4 27/152/4 28/153/4 57/32/4 87/31/4 86/36/4
f 7/154/1 8/155/1 72/156/1 74/157/1
f 64/158/6 63/159/6 43/160/6 39/161/6
f 67/162/5 45/163/5 65/164/5 66/165/5
f 69/166/3 68/167/3 70/168/3 8/169/3
f 73/170/3 74/171/3 72/172/3 71/173/3
f 8/174/5 70/175/5 71/176/5 72/177/5
f 74/178/6 73/179/6 16/180/6 7/181/6
f 6/182/4 15/39/4 9/38/4 52/183/4 14/184/4
f 7/185/3 16/186/3 75/65/3 76/187/3
f 29/188/6 14/189/6 54/143/6 49/110/6 32/119/6
f 75/65/6 77/64/6 78/190/6 76/187/6
f 36/191/4 44/192/4 41/193/4 42/194/4
f 3/142/4 2/195/4 4/58/4 78/93/4 77/196/4 5/197/4 85/198/4 88/141/4
f 84/147/4 19/199/4 55/200/4 85/201/4
f 48/111/5 53/146/5 50/202/5 9/203/5 10/204/5 11/205/5
f 70/206/2 68/56/2 2/55/2 3/207/2
f 50/202/2 51/144/2 54/143/2 14/184/2 52/183/2 9/38/2
f 22/71/5 56/29/5 28/153/5 27/152/5 20/46/5 21/208/5
f 89/30/5 56/29/5 22/71/5 90/52/5
f 19/199/6 18/69/6 24/209/6 23/45/6 25/210/6 26/211/6
f 19/199/6 84/147/6 83/70/6 18/69/6
f 17/41/3 62/112/3 21/208/3 20/46/3 23/45/3 24/209/3
f 81/82/3 62/112/3 17/41/3 79/40/3
