# Blender v2.82 (sub 7) OBJ File: ''
# www.blender.org
mtllib nv_glass_vertex.mtl
o Cube.001
v 0.000000 0.500000 0.500000
v 0.000000 -0.000000 0.500000
v 0.000000 0.000000 0.000000
v 0.000000 0.500000 0.000000
v -0.500000 -0.000000 0.500000
v -0.500000 0.000000 0.000000
v -0.500000 0.000000 0.000000
v -0.500000 -0.000000 0.500000
v 0.000000 0.000000 0.000000
v 0.000000 -0.000000 0.500000
v 0.000000 0.500000 0.500000
v -0.500000 0.500000 0.000000
v -0.500000 0.500000 0.000000
v 0.000000 0.500000 0.000000
vt 1.000000 1.000000
vt 1.000000 0.500000
vt 0.500000 0.500000
vt 0.500000 1.000000
vt 0.500000 0.500000
vt 1.000000 0.500000
vt 1.000000 -0.000000
vt 0.500000 -0.000000
vt 1.000000 0.000000
vt 1.000000 0.437500
vt 0.562500 0.437500
vt 0.562500 0.000000
vt 0.500000 1.000000
vt 1.000000 1.000000
vt 0.000000 0.000000
vt 0.500000 0.000000
vt 0.000000 0.500000
vt 0.000000 0.500000
vt 0.500000 -0.000000
vt -0.000000 0.000000
vn 1.0000 0.0000 0.0000
vn 0.0000 -1.0000 -0.0000
vn 0.0000 1.0000 0.0000
vn -0.7511 -0.0230 0.6598
vn -0.7071 -0.0000 0.7071
vn -1.0000 0.0000 0.0000
vn 0.0000 0.0000 -1.0000
vn 0.0000 -0.0000 1.0000
usemtl None
s off
f 1/1/1 2/2/1 3/3/1 4/4/1
f 9/5/2 10/6/2 8/7/2 7/8/2
f 5/9/3 2/10/3 3/11/3 6/12/3
s 1
f 14/13/4 9/5/5 10/6/6 11/14/6
f 12/15/7 4/16/7 3/3/7 6/17/7
f 7/18/8 9/5/5 14/19/4 13/20/8
