# Blender v2.82 (sub 7) OBJ File: ''
# www.blender.org
mtllib nv_glass_edge.mtl
o Cube.002
v -0.500000 -0.500000 -0.000000
v -0.500000 0.500000 0.000000
v 0.000000 -0.500000 -0.000000
v 0.000000 0.500000 0.000000
v 0.000000 0.500000 0.000000
v 0.000000 0.500000 0.500000
v 0.000000 -0.500000 0.500000
v 0.000000 -0.500000 -0.000000
v -0.500000 -0.500000 -0.000000
v -0.500000 0.500000 0.000000
v 0.000000 -0.500000 -0.000000
v 0.000000 0.500000 0.000000
v 0.000000 0.500000 0.000000
v 0.000000 0.500000 0.500000
v 0.000000 -0.500000 0.500000
v 0.000000 -0.500000 -0.000000
vt 0.500000 1.000000
vt 0.500000 -0.000000
vt -0.000000 0.000000
vt -0.000000 1.000000
vt 0.500000 1.000000
vt 0.500000 0.000000
vt 1.000000 0.000000
vt 1.000000 1.000000
vt 0.500000 1.000000
vt -0.000000 1.000000
vt -0.000000 0.000000
vt 0.500000 -0.000000
vt 0.500000 1.000000
vt 1.000000 1.000000
vt 1.000000 0.000000
vt 0.500000 0.000000
vn 0.0000 -0.0000 1.0000
vn -1.0000 0.0000 0.0000
vn 0.0000 0.0000 -1.0000
vn 1.0000 0.0000 0.0000
usemtl None.001
s 1
f 3/1/1 4/2/1 2/3/1 1/4/1
f 5/5/2 8/6/2 7/7/2 6/8/2
f 11/9/3 9/10/3 10/11/3 12/12/3
f 13/13/4 14/14/4 15/15/4 16/16/4
