# Blender v2.82 (sub 7) OBJ File: ''
# www.blender.org
mtllib nv_glass_vertex.mtl
o Cube.002
v 0.062500 0.500000 0.500000
v 0.062500 -0.062500 0.500000
v 0.062500 -0.062500 -0.062500
v 0.062500 0.500000 -0.062500
v -0.500000 -0.062500 0.500000
v -0.500000 -0.062500 -0.062500
v -0.500000 0.062500 0.062500
v -0.500000 0.062500 0.500000
v -0.062500 0.062500 0.062500
v -0.062500 0.062500 0.500000
v -0.062500 0.500000 0.500000
v -0.500000 0.500000 -0.062500
v -0.500000 0.500000 0.062500
v -0.062500 0.500000 0.062500
vt 1.000000 1.000000
vt 1.000000 0.437500
vt 0.437500 0.437500
vt 0.437500 1.000000
vt 0.562500 0.000000
vt 0.000000 -0.000000
vt 0.125000 0.125000
vt 0.562500 0.125000
vt 0.562500 0.437500
vt 1.000000 0.437500
vt 1.000000 -0.000000
vt 0.562500 0.000000
vt 1.000000 0.000000
vt 1.000000 0.500000
vt 0.500000 0.500000
vt 0.500000 -0.000000
vt 1.000000 0.000000
vt 1.000000 0.562500
vt 0.875000 0.562500
vt 0.875000 0.125000
vt 0.437500 0.125000
vt 0.437500 0.000000
vt 0.000000 0.562500
vt 0.125000 0.562500
vt 1.000000 0.437500
vt 1.000000 1.000000
vt 0.875000 0.875000
vt 0.875000 0.437500
vt 0.562500 1.000000
vt 1.000000 1.000000
vt 1.000000 0.562500
vt 0.562500 0.562500
vt 0.000000 0.000000
vt 0.562500 0.000000
vt 0.562500 0.562500
vt 0.000000 0.562500
vt 0.000000 0.437500
vt 0.437500 0.437500
vt 0.437500 0.000000
vt -0.000000 0.000000
vt 0.437500 1.000000
vt 0.437500 0.875000
vn 1.0000 -0.0000 -0.0000
vn 0.0000 -1.0000 0.0000
vn -0.0000 1.0000 -0.0000
vn -0.0000 0.0000 1.0000
vn -0.7071 -0.0000 -0.7071
vn -0.4472 -0.0000 -0.8944
vn -1.0000 0.0000 0.0000
vn 0.0000 0.9487 0.3162
vn -0.0000 -0.0000 -1.0000
vn 0.0000 0.7071 0.7071
usemtl None
s off
f 1/1/1 2/2/1 3/3/1 4/4/1
f 5/5/1 6/6/1 7/7/1 8/8/1
f 9/9/2 10/10/2 8/11/2 7/12/2
f 5/13/3 2/14/3 3/15/3 6/16/3
f 2/17/4 1/18/4 11/19/4 10/20/4
f 10/20/4 8/21/4 5/22/4 2/17/4
s 1
f 12/23/5 6/6/6 7/7/7 13/24/7
f 1/25/3 4/26/3 14/27/8 11/28/3
f 14/29/1 11/30/1 10/31/1 9/32/1
f 12/33/5 4/34/9 3/35/9 6/36/6
f 7/37/4 9/38/4 14/39/8 13/40/10
f 12/41/3 13/42/10 14/27/8 4/26/3
