# Blender v2.82 (sub 7) OBJ File: ''
# www.blender.org
o Cube.002
v 0.500000 -0.500000 -0.062500
v 0.500000 0.500000 -0.062500
v 0.500000 0.500000 0.062500
v 0.500000 -0.500000 0.062500
v -0.500000 0.500000 0.062500
v -0.500000 -0.500000 0.062500
v -0.500000 0.500000 -0.062500
v -0.500000 -0.500000 -0.062500
vt -0.000000 1.000000
vt -0.000000 -0.000000
vt 0.125000 0.000000
vt 0.125000 1.000000
vt 0.875000 1.000000
vt 0.875000 0.000000
vt 1.000000 0.000000
vt 1.000000 1.000000
vt 1.000000 0.000000
vt 0.000000 0.000000
vt 0.000000 1.000000
vt 1.000000 1.000000
vt -0.000000 -0.000000
vt 1.000000 0.000000
vt 1.000000 0.125000
vt 0.000000 0.125000
vt 0.000000 0.875000
vt 1.000000 0.875000
vt 1.000000 1.000000
vt -0.000000 1.000000
vt 0.000000 -0.000000
vt 1.000000 -0.000000
vt 1.000000 1.000000
vt -0.000000 1.000000
vn 1.0000 0.0000 0.0000
vn -1.0000 0.0000 0.0000
vn 0.0000 -0.0000 1.0000
vn 0.0000 -1.0000 0.0000
vn 0.0000 1.0000 0.0000
vn 0.0000 0.0000 -1.0000
s 1
f 1/1/1 2/2/1 3/3/1 4/4/1
f 6/5/2 5/6/2 7/7/2 8/8/2
f 3/9/3 5/10/3 6/11/3 4/12/3
f 4/13/4 6/14/4 8/15/4 1/16/4
f 5/17/5 3/18/5 2/19/5 7/20/5
f 7/21/6 2/22/6 1/23/6 8/24/6
