# Blender v2.82 (sub 7) OBJ File: ''
# www.blender.org
mtllib nv_glass_face.mtl
o Cube.002
v 0.500000 -0.500000 -0.000000
v 0.500000 0.500000 0.000000
v 0.500000 0.500000 0.000000
v 0.500000 -0.500000 -0.000000
v -0.500000 -0.500000 -0.000000
v -0.500000 0.500000 0.000000
v -0.500000 0.500000 0.000000
v -0.500000 -0.500000 -0.000000
vt 1.000000 0.000000
vt 0.000000 0.000000
vt 0.000000 1.000000
vt 1.000000 1.000000
vt 0.000000 -0.000000
vt 1.000000 -0.000000
vt 1.000000 1.000000
vt -0.000000 1.000000
vn 0.0000 -0.0000 1.0000
vn 0.0000 0.0000 -1.0000
usemtl Default_OBJ
s 1
f 3/1/1 6/2/1 5/3/1 4/4/1
f 7/5/2 2/6/2 1/7/2 8/8/2
