# Blender v2.82 (sub 7) OBJ File: ''
# www.blender.org
mtllib nv_glass_edge.mtl
o Cube.002
v 0.500000 0.500000 0.062500
v 0.500000 -0.500000 0.062500
v -0.062500 0.500000 -0.500000
v 0.062500 -0.500000 -0.500000
v -0.062500 -0.500000 0.062500
v -0.062500 -0.500000 -0.500000
v -0.062500 0.500000 0.062500
v 0.062500 0.500000 -0.062500
v 0.062500 0.500000 -0.500000
v 0.062500 -0.500000 -0.062500
v 0.500000 0.500000 -0.062500
v 0.500000 -0.500000 -0.062500
v 0.500000 -0.500000 0.062500
v -0.062500 -0.500000 0.062500
v 0.062500 -0.500000 -0.062500
v 0.500000 -0.500000 -0.062500
v 0.500000 0.500000 0.062500
v 0.500000 -0.500000 0.062500
v 0.062500 -0.500000 -0.500000
v -0.062500 -0.500000 0.062500
v -0.062500 0.500000 0.062500
v 0.062500 0.500000 -0.062500
v 0.062500 0.500000 -0.500000
v 0.062500 -0.500000 -0.062500
vt -0.000000 1.000000
vt -0.000000 0.000000
vt 0.062500 0.000000
vt 0.062500 1.000000
vt 0.937500 1.000000
vt 0.937500 0.000000
vt 1.000000 0.000000
vt 1.000000 1.000000
vt 0.562500 0.000000
vt 0.562500 0.125000
vt 0.125000 0.125000
vt -0.000000 0.000000
vt 0.437500 1.000000
vt 0.437500 0.000000
vt 0.437500 1.000000
vt 0.437500 0.875000
vt 0.875000 0.875000
vt 1.000000 1.000000
vt 0.437500 1.000000
vt 1.000000 1.000000
vt 1.000000 0.000000
vt 0.437500 0.000000
vt 1.000000 0.437500
vt 0.875000 0.437500
vt -0.000000 0.562500
vt 0.000000 -0.000000
vt 0.125000 0.125000
vt 0.125000 0.562500
vt 0.000000 0.000000
vt 0.562500 0.000000
vt 0.562500 1.000000
vt 0.000000 1.000000
vt 0.562500 1.000000
vt 0.562500 0.000000
vt 1.000000 0.000000
vt 1.000000 1.000000
vn 1.0000 -0.0000 0.0000
vn 0.0000 0.0000 -1.0000
vn -0.7071 -0.7071 0.0000
vn 0.0000 -1.0000 0.0000
vn -0.8944 -0.4472 0.0000
vn -0.0000 0.9487 -0.3162
vn 0.0000 0.7071 -0.7071
vn 0.0000 1.0000 0.0000
vn -0.7071 0.7071 0.0000
vn 0.0000 -0.0000 1.0000
usemtl None
s 1
f 12/1/1 11/2/1 1/3/1 2/4/1
f 6/5/2 3/6/2 9/7/2 4/8/2
f 6/9/3 4/10/4 10/11/4 5/12/5
f 10/13/2 8/14/6 11/2/7 12/1/2
f 1/15/8 11/16/7 8/17/6 7/18/9
f 7/19/9 3/20/9 6/21/3 5/22/5
f 3/23/9 7/18/9 8/17/6 9/24/8
f 13/25/4 14/26/4 15/27/4 16/28/4
f 17/29/10 21/30/10 20/31/10 18/32/10
f 22/33/1 24/34/1 19/35/1 23/36/1
