# Blender v2.82 (sub 7) OBJ File: 'seat.blend'
# www.blender.org
mtllib seat.mtl
o Cube.001
v -0.187500 -0.249998 0.187500
v -0.187500 -0.187498 0.187500
v -0.187500 -0.249998 -0.187500
v -0.187500 -0.187498 -0.187500
v -0.125000 -0.249998 0.187500
v -0.125000 -0.187498 0.187500
v -0.125000 -0.249998 -0.187500
v -0.125000 -0.187498 -0.187500
v -0.250000 0.000000 -0.125000
v -0.250000 0.125000 -0.125000
v -0.250000 0.125000 -0.187500
v -0.250000 0.000000 -0.187500
v -0.187500 0.125000 -0.187500
v -0.187500 0.000000 -0.187500
v -0.187500 0.125000 -0.125000
v -0.187500 0.000000 -0.125000
v -0.187500 0.375000 -0.125000
v -0.187500 0.500000 -0.125000
v -0.187500 0.500000 -0.187500
v -0.187500 0.375000 -0.187500
v -0.125000 0.500000 -0.187500
v -0.125000 0.375000 -0.187500
v -0.125000 0.500000 -0.125000
v -0.125000 0.375000 -0.125000
v -0.125000 0.437500 -0.187500
v -0.125000 0.500000 -0.187500
v -0.125000 0.500000 -0.250000
v -0.125000 0.437500 -0.250000
v 0.125000 0.500000 -0.250000
v 0.125000 0.437500 -0.250000
v 0.125000 0.500000 -0.187500
v 0.125000 0.437500 -0.187500
v -0.500000 -0.500000 0.500000
v -0.500000 -0.249998 0.500000
v -0.500000 -0.249998 -0.500000
v -0.500000 -0.500000 -0.500000
v 0.500000 -0.249998 -0.500000
v 0.500000 -0.500000 -0.500000
v 0.500000 -0.249998 0.500000
v 0.500000 -0.500000 0.500000
v -0.125000 -0.187500 0.312500
v -0.125000 -0.062500 0.312500
v -0.125000 -0.062500 0.250000
v -0.125000 -0.187500 0.250000
v 0.125000 -0.062500 0.250000
v 0.125000 -0.187500 0.250000
v 0.125000 -0.062500 0.312500
v 0.125000 -0.187500 0.312500
v -0.187500 0.000000 -0.062500
v -0.187500 0.062500 -0.062500
v -0.187500 0.062500 -0.125000
v -0.187500 0.000000 -0.125000
v 0.187500 0.062500 -0.125000
v 0.187500 0.000000 -0.125000
v 0.187500 0.062500 -0.062500
v 0.187500 0.000000 -0.062500
v 0.125000 0.375000 -0.125000
v 0.125000 0.500000 -0.125000
v 0.125000 0.500000 -0.187500
v 0.125000 0.375000 -0.187500
v 0.187500 0.500000 -0.187500
v 0.187500 0.375000 -0.187500
v 0.187500 0.500000 -0.125000
v 0.187500 0.375000 -0.125000
v -0.312500 0.062500 0.125000
v -0.312500 0.125000 0.125000
v -0.312500 0.125000 -0.125000
v -0.312500 0.062500 -0.125000
v -0.187500 0.125000 -0.125000
v -0.187500 0.062500 -0.125000
v -0.187500 0.125000 0.125000
v -0.187500 0.062500 0.125000
v 0.187500 0.000000 -0.125000
v 0.187500 0.125000 -0.125000
v 0.187500 0.125000 -0.187500
v 0.187500 0.000000 -0.187500
v 0.250000 0.125000 -0.187500
v 0.250000 0.000000 -0.187500
v 0.250000 0.125000 -0.125000
v 0.250000 0.000000 -0.125000
v 0.187500 0.062500 0.125000
v 0.187500 0.125000 0.125000
v 0.187500 0.125000 -0.125000
v 0.187500 0.062500 -0.125000
v 0.312500 0.125000 -0.125000
v 0.312500 0.062500 -0.125000
v 0.312500 0.125000 0.125000
v 0.312500 0.062500 0.125000
v -0.250000 -0.000000 0.187500
v -0.250000 0.125000 0.187500
v -0.250000 0.125000 0.125000
v -0.250000 -0.000000 0.125000
v -0.187500 0.125000 0.125000
v -0.187500 -0.000000 0.125000
v -0.187500 0.125000 0.187500
v -0.187500 -0.000000 0.187500
v 0.187500 -0.000000 0.187500
v 0.187500 0.125000 0.187500
v 0.187500 0.125000 0.125000
v 0.187500 -0.000000 0.125000
v 0.250000 0.125000 0.125000
v 0.250000 -0.000000 0.125000
v 0.250000 0.125000 0.187500
v 0.250000 -0.000000 0.187500
v 0.062500 -0.312500 -0.062500
v 0.062500 -0.125000 -0.062500
v 0.062500 -0.125000 0.062500
v 0.062500 -0.312500 0.062500
v -0.062500 -0.125000 0.062500
v -0.062500 -0.312500 0.062500
v -0.062500 -0.125000 -0.062500
v -0.062500 -0.312500 -0.062500
v 0.187500 -0.125000 -0.125000
v 0.187500 0.000000 -0.125000
v 0.187500 -0.000000 0.250000
v 0.187500 -0.125000 0.250000
v -0.187500 -0.000000 0.250000
v -0.187500 -0.125000 0.250000
v -0.187500 0.000000 -0.125000
v -0.187500 -0.125000 -0.125000
v 0.187500 -0.062500 -0.187500
v 0.187500 0.375000 -0.187500
v 0.187500 0.375000 -0.125000
v 0.187500 -0.062500 -0.125000
v -0.187500 0.375000 -0.125000
v -0.187500 -0.062500 -0.125000
v -0.187500 0.375000 -0.187500
v -0.187500 -0.062500 -0.187500
v 0.187500 -0.062500 -0.125000
v 0.187500 -0.062500 0.250000
v -0.187500 -0.062500 0.250000
v -0.187500 -0.062500 -0.125000
v -0.250000 0.062500 0.187500
v -0.250000 0.062500 0.125000
v -0.187500 0.062500 0.125000
v -0.187500 0.062500 0.187500
v 0.187500 0.062500 0.187500
v 0.187500 0.062500 0.125000
v 0.250000 0.062500 0.125000
v 0.250000 0.062500 0.187500
v 0.125000 -0.249998 0.187500
v 0.125000 -0.187498 0.187500
v 0.125000 -0.249998 -0.187500
v 0.125000 -0.187498 -0.187500
v 0.187500 -0.249998 0.187500
v 0.187500 -0.187498 0.187500
v 0.187500 -0.249998 -0.187500
v 0.187500 -0.187498 -0.187500
v -0.125000 -0.249998 -0.125000
v -0.125000 -0.187498 -0.125000
v -0.125000 -0.249998 -0.187500
v -0.125000 -0.187498 -0.187500
v 0.125000 -0.249998 -0.125000
v 0.125000 -0.187498 -0.125000
v 0.125000 -0.249998 -0.187500
v 0.125000 -0.187498 -0.187500
v -0.125000 -0.249998 0.187500
v -0.125000 -0.187498 0.187500
v -0.125000 -0.249998 0.125000
v -0.125000 -0.187498 0.125000
v 0.125000 -0.249998 0.187500
v 0.125000 -0.187498 0.187500
v 0.125000 -0.249998 0.125000
v 0.125000 -0.187498 0.125000
vt 0.812500 0.593750
vt 0.812500 0.562500
vt 1.000000 0.562500
vt 1.000000 0.593750
vt 0.968750 0.562500
vt 1.000000 0.593750
vt 0.968750 0.593750
vt 0.812500 0.625000
vt 0.812500 0.593750
vt 1.000000 0.593750
vt 1.000000 0.625000
vt 0.812500 0.562500
vt 0.843750 0.562500
vt 0.843750 0.593750
vt 0.125000 0.500000
vt 0.375000 0.500000
vt 0.375000 0.750000
vt 0.125000 0.750000
vt 0.812500 0.562500
vt 1.000000 0.562500
vt 0.468750 0.781250
vt 0.500000 0.781250
vt 0.500000 0.843750
vt 0.468750 0.843750
vt 0.562500 0.781250
vt 0.593750 0.781250
vt 0.593750 0.843750
vt 0.562500 0.843750
vt 0.375000 0.500000
vt 0.625000 0.500000
vt 0.625000 0.750000
vt 0.375000 0.750000
vt 0.500000 0.781250
vt 0.531250 0.781250
vt 0.531250 0.843750
vt 0.500000 0.843750
vt 0.125000 0.500000
vt 0.125000 0.750000
vt 0.531250 0.812500
vt 0.562500 0.812500
vt 0.562500 0.843750
vt 0.531250 0.843750
vt 0.562500 0.781250
vt 0.562500 0.843750
vt 0.531250 0.843750
vt 0.531250 0.781250
vt 0.562500 0.781250
vt 0.562500 0.843750
vt 0.531250 0.843750
vt 0.531250 0.781250
vt 0.500000 0.843750
vt 0.500000 0.781250
vt 0.468750 0.843750
vt 0.468750 0.781250
vt 0.125000 0.500000
vt 0.375000 0.500000
vt 0.375000 0.750000
vt 0.125000 0.750000
vt 0.562500 0.812500
vt 0.593750 0.812500
vt 0.593750 0.843750
vt 0.562500 0.843750
vt 0.562500 0.875000
vt 0.593750 0.875000
vt 0.593750 0.906250
vt 0.562500 0.906250
vt 0.468750 0.875000
vt 0.593750 0.875000
vt 0.593750 0.906250
vt 0.468750 0.906250
vt 0.468750 0.875000
vt 0.500000 0.875000
vt 0.500000 0.906250
vt 0.468750 0.906250
vt 0.593750 0.937500
vt 0.593750 0.968750
vt 0.468750 0.968750
vt 0.468750 0.937500
vt 0.593750 0.937500
vt 0.468750 0.937500
vt 0.593750 0.906250
vt 0.468750 0.968750
vt 0.593750 0.968750
vt 0.593750 1.000000
vt 0.468750 1.000000
vt 0.500000 0.125000
vt 0.500000 -0.000000
vt 1.000000 0.000000
vt 1.000000 0.125000
vt 0.500000 0.250000
vt 0.500000 0.125000
vt 1.000000 0.125000
vt 1.000000 0.250000
vt 0.500000 0.375000
vt 0.500000 0.250000
vt 1.000000 0.250000
vt 1.000000 0.375000
vt 0.500000 0.500000
vt 0.500000 0.375000
vt 1.000000 0.375000
vt 1.000000 0.500000
vt 0.500000 0.000000
vt 1.000000 0.000000
vt 1.000000 0.500000
vt 0.500000 0.500000
vt 0.000000 0.000000
vt 0.500000 0.000000
vt 0.500000 0.500000
vt 0.000000 0.500000
vt 0.500000 0.625000
vt 0.500000 0.687500
vt 0.468750 0.687500
vt 0.468750 0.625000
vt 0.468750 0.593750
vt 0.468750 0.562500
vt 0.593750 0.562500
vt 0.593750 0.593750
vt 0.593750 0.625000
vt 0.593750 0.687500
vt 0.562500 0.687500
vt 0.562500 0.625000
vt 0.593750 0.625000
vt 0.593750 0.687500
vt 0.468750 0.687500
vt 0.468750 0.625000
vt 0.468750 0.687500
vt 0.593750 0.687500
vt 0.593750 0.718750
vt 0.468750 0.718750
vt 0.000000 0.812500
vt 0.031250 0.812500
vt 0.031250 0.843750
vt 0.000000 0.843750
vt 0.375000 0.250000
vt 0.625000 0.250000
vt 0.625000 0.500000
vt 0.375000 0.500000
vt 0.156250 0.812500
vt 0.187500 0.812500
vt 0.187500 0.843750
vt 0.156250 0.843750
vt 0.187500 0.781250
vt 0.187500 0.812500
vt 0.000000 0.812500
vt -0.000000 0.781250
vt 0.125000 0.500000
vt 0.375000 0.750000
vt 0.125000 0.750000
vt 0.187500 0.843750
vt -0.000000 0.843750
vt 0.531250 0.781250
vt 0.531250 0.843750
vt 0.500000 0.843750
vt 0.500000 0.781250
vt 0.562500 0.781250
vt 0.562500 0.843750
vt 0.531250 0.843750
vt 0.531250 0.781250
vt 0.593750 0.781250
vt 0.593750 0.843750
vt 0.562500 0.843750
vt 0.562500 0.781250
vt 0.500000 0.781250
vt 0.500000 0.843750
vt 0.468750 0.843750
vt 0.468750 0.781250
vt 0.125000 0.500000
vt 0.375000 0.500000
vt 0.375000 0.750000
vt 0.125000 0.750000
vt 0.562500 0.812500
vt 0.593750 0.812500
vt 0.593750 0.843750
vt 0.781250 1.000000
vt 0.750000 1.000000
vt 0.750000 0.875000
vt 0.781250 0.875000
vt 0.656250 1.000000
vt 0.656250 0.968750
vt 0.718750 0.968750
vt 0.718750 1.000000
vt 0.750000 0.875000
vt 0.781250 0.875000
vt 0.781250 1.000000
vt 0.750000 1.000000
vt 0.687500 0.875000
vt 0.718750 0.875000
vt 0.718750 0.906250
vt 0.687500 0.906250
vt 0.812500 1.000000
vt 0.750000 1.000000
vt 0.750000 0.875000
vt 0.812500 0.875000
vt 0.656250 1.000000
vt 0.718750 1.000000
vt 0.718750 0.875000
vt 0.656250 0.875000
vt 0.375000 0.000000
vt 0.625000 0.000000
vt 0.625000 0.250000
vt 0.375000 0.250000
vt 0.562500 0.781250
vt 0.593750 0.781250
vt 0.593750 0.843750
vt 0.562500 0.843750
vt 0.468750 0.781250
vt 0.500000 0.781250
vt 0.500000 0.843750
vt 0.468750 0.843750
vt 0.500000 0.781250
vt 0.531250 0.781250
vt 0.531250 0.843750
vt 0.500000 0.843750
vt 0.125000 0.500000
vt 0.375000 0.500000
vt 0.375000 0.750000
vt 0.125000 0.750000
vt 0.531250 0.812500
vt 0.562500 0.812500
vt 0.562500 0.843750
vt 0.531250 0.843750
vt 0.781250 1.000000
vt 0.750000 1.000000
vt 0.750000 0.875000
vt 0.781250 0.875000
vt 0.718750 0.968750
vt 0.718750 1.000000
vt 0.656250 1.000000
vt 0.656250 0.968750
vt 0.750000 0.875000
vt 0.781250 0.875000
vt 0.781250 1.000000
vt 0.750000 1.000000
vt 0.687500 0.875000
vt 0.718750 0.875000
vt 0.718750 0.906250
vt 0.687500 0.906250
vt 0.812500 1.000000
vt 0.750000 1.000000
vt 0.750000 0.875000
vt 0.812500 0.875000
vt 0.718750 1.000000
vt 0.656250 1.000000
vt 0.656250 0.875000
vt 0.656250 0.843750
vt 0.687500 0.843750
vt 0.687500 0.875000
vt 0.656250 0.875000
vt 0.500000 0.250000
vt 0.625000 0.250000
vt 0.625000 0.500000
vt 0.500000 0.500000
vt 0.656250 0.843750
vt 0.687500 0.843750
vt 0.687500 0.875000
vt 0.656250 0.875000
vt 0.656250 0.843750
vt 0.687500 0.843750
vt 0.687500 0.875000
vt 0.656250 0.875000
vt 0.125000 0.500000
vt 0.375000 0.500000
vt 0.375000 0.750000
vt 0.125000 0.750000
vt 0.656250 0.843750
vt 0.687500 0.843750
vt 0.656250 0.875000
vt 0.656250 0.843750
vt 0.687500 0.843750
vt 0.687500 0.875000
vt 0.656250 0.875000
vt 0.500000 0.250000
vt 0.625000 0.250000
vt 0.625000 0.500000
vt 0.500000 0.500000
vt 0.656250 0.843750
vt 0.687500 0.843750
vt 0.687500 0.875000
vt 0.656250 0.875000
vt 0.656250 0.843750
vt 0.687500 0.843750
vt 0.687500 0.875000
vt 0.656250 0.875000
vt 0.125000 0.500000
vt 0.375000 0.500000
vt 0.375000 0.750000
vt 0.125000 0.750000
vt 0.656250 0.843750
vt 0.687500 0.843750
vt 0.656250 0.875000
vt 0.562500 0.812500
vt 0.593750 0.812500
vt 0.593750 0.843750
vt 0.562500 0.843750
vt 0.531250 0.812500
vt 0.562500 0.812500
vt 0.562500 0.843750
vt 0.531250 0.843750
vt 0.500000 0.781250
vt 0.531250 0.781250
vt 0.531250 0.843750
vt 0.500000 0.843750
vt 0.468750 0.812500
vt 0.500000 0.812500
vt 0.500000 0.843750
vt 0.468750 0.843750
vt 0.562500 0.812500
vt 0.593750 0.812500
vt 0.593750 0.843750
vt 0.562500 0.843750
vt 0.468750 0.812500
vt 0.500000 0.812500
vt 0.500000 0.843750
vt 0.468750 0.843750
vt 0.500000 0.812500
vt 0.531250 0.812500
vt 0.531250 0.843750
vt 0.500000 0.843750
vt 0.531250 0.812500
vt 0.562500 0.812500
vt 0.562500 0.843750
vt 0.531250 0.843750
vt 1.000000 0.593750
vt 1.000000 0.625000
vt 0.812500 0.625000
vt 0.812500 0.593750
vt 0.812500 0.562500
vt 0.843750 0.562500
vt 0.843750 0.593750
vt 0.812500 0.593750
vt 1.000000 0.562500
vt 1.000000 0.593750
vt 0.812500 0.593750
vt 0.812500 0.562500
vt 0.968750 0.562500
vt 1.000000 0.562500
vt 1.000000 0.593750
vt 0.968750 0.593750
vt 0.125000 0.500000
vt 0.375000 0.500000
vt 0.375000 0.750000
vt 0.125000 0.750000
vt 0.812500 0.593750
vt 0.812500 0.562500
vt 1.000000 0.562500
vt 1.000000 0.593750
vt 0.375000 0.000000
vt 0.625000 0.000000
vt 0.625000 0.250000
vt 0.375000 0.250000
vt 0.656250 0.593750
vt 0.656250 0.562500
vt 0.781250 0.562500
vt 0.781250 0.593750
vt 0.375000 0.500000
vt 0.625000 0.500000
vt 0.625000 0.750000
vt 0.375000 0.750000
vt 0.656250 0.625000
vt 0.656250 0.593750
vt 0.781250 0.593750
vt 0.781250 0.625000
vt 0.125000 0.500000
vt 0.125000 0.750000
vt 0.656250 0.562500
vt 0.781250 0.562500
vt 0.375000 0.000000
vt 0.625000 0.000000
vt 0.625000 0.250000
vt 0.375000 0.250000
vt 0.656250 0.625000
vt 0.656250 0.593750
vt 0.781250 0.593750
vt 0.781250 0.625000
vt 0.375000 0.500000
vt 0.625000 0.500000
vt 0.625000 0.750000
vt 0.375000 0.750000
vt 0.656250 0.593750
vt 0.656250 0.562500
vt 0.781250 0.562500
vt 0.781250 0.593750
vt 0.125000 0.500000
vt 0.125000 0.750000
vt 0.656250 0.562500
vt 0.781250 0.562500
vt 0.781250 0.656250
vt 0.781250 0.750000
vt 0.718750 0.750000
vt 0.718750 0.656250
vt 0.656250 0.750000
vt 0.656250 0.656250
vt 0.906250 0.656250
vt 0.906250 0.750000
vt 0.843750 0.750000
vt 0.843750 0.656250
vt 0.125000 0.750000
vt 0.000000 0.750000
vt 0.000000 0.625000
vt 0.125000 0.625000
vt 0.625000 0.562500
vt 1.000000 0.437500
vt 1.000000 1.000000
vt 0.562500 0.812500
vt 0.187500 0.750000
vt 0.156250 0.750000
vt 0.156250 0.562500
vt 0.187500 0.562500
vt 0.625000 0.718750
vt 0.625000 0.750000
vt 0.437500 0.750000
vt 0.437500 0.718750
vt -0.000000 0.562500
vt 0.031250 0.562500
vt 0.031250 0.750000
vt 0.000000 0.750000
vt 0.500000 0.781250
vt 0.500000 0.750000
vt 0.750000 0.750000
vt 0.750000 0.781250
vt 0.218750 0.562500
vt 0.406250 0.562500
vt 0.406250 0.750000
vt 0.218750 0.750000
vt 0.000000 0.562500
vt 0.187500 0.562500
vt 0.187500 0.750000
vt -0.000000 0.750000
vt 0.218750 1.000000
vt 0.218750 0.781250
vt 0.250000 0.781250
vt 0.250000 1.000000
vt 0.187500 0.781250
vt 0.187500 1.000000
vt -0.000000 1.000000
vt 0.000000 0.781250
vt 0.375000 1.000000
vt 0.375000 0.781250
vt 0.406250 0.781250
vt 0.406250 1.000000
vt 0.406250 0.781250
vt 0.406250 1.000000
vt 0.218750 1.000000
vt 0.218750 0.781250
vt 0.406250 0.781250
vt 0.406250 0.812500
vt 0.218750 0.812500
vt 0.218750 0.968750
vt 0.406250 0.968750
vt 0.406250 1.000000
vt 0.218750 1.000000
vt 0.218750 0.750000
vt 0.218750 0.718750
vt 0.406250 0.718750
vt 0.406250 0.750000
vt 0.406250 0.750000
vt 0.375000 0.750000
vt 0.375000 0.562500
vt 0.406250 0.562500
vt 0.625000 0.687500
vt 0.437500 0.687500
vt 0.250000 0.750000
vt 0.218750 0.750000
vt 0.218750 0.562500
vt 0.250000 0.562500
vn -1.0000 0.0000 0.0000
vn 0.0000 0.0000 -1.0000
vn 1.0000 0.0000 0.0000
vn 0.0000 0.0000 1.0000
vn 0.0000 -1.0000 0.0000
vn 0.0000 1.0000 0.0000
vn 0.5773 -0.5773 -0.5773
vn 0.5773 0.5773 -0.5773
vn 0.5773 0.5773 0.5773
vn 0.5773 -0.5773 0.5773
vn -0.5773 0.5773 0.5773
vn -0.5773 -0.5773 0.5773
vn -0.5773 0.5773 -0.5773
vn -0.5773 -0.5773 -0.5773
vn 0.7071 0.0000 -0.7071
vn 0.7071 0.0000 0.7071
vn -0.7071 0.0000 0.7071
vn -0.7071 0.0000 -0.7071
usemtl None
s off
f 1/1/1 2/2/1 4/3/1 3/4/1
f 3/5/2 4/3/2 8/6/2 7/7/2
f 7/8/3 8/9/3 6/10/3 5/11/3
f 5/12/4 6/13/4 2/14/4 1/1/4
f 3/15/5 7/16/5 5/17/5 1/18/5
f 8/9/6 4/19/6 2/20/6 6/10/6
f 9/21/1 10/22/1 11/23/1 12/24/1
f 12/25/2 11/26/2 13/27/2 14/28/2
f 14/29/3 13/30/3 15/31/3 16/32/3
f 16/33/4 15/34/4 10/35/4 9/36/4
f 12/37/5 14/29/5 16/32/5 9/38/5
f 13/39/6 11/40/6 10/41/6 15/42/6
f 17/43/1 18/44/1 19/45/1 20/46/1
f 20/47/2 19/48/2 21/49/2 22/50/2
f 22/50/3 21/49/3 23/51/3 24/52/3
f 24/52/4 23/51/4 18/53/4 17/54/4
f 20/55/5 22/56/5 24/57/5 17/58/5
f 21/59/6 19/60/6 18/61/6 23/62/6
f 25/63/1 26/64/1 27/65/1 28/66/1
f 28/67/2 27/68/2 29/69/2 30/70/2
f 30/71/3 29/72/3 31/73/3 32/74/3
f 32/75/4 31/76/4 26/77/4 25/78/4
f 28/79/5 30/80/5 32/74/5 25/81/5
f 29/82/6 27/83/6 26/84/6 31/85/6
f 33/86/1 34/87/1 35/88/1 36/89/1
f 36/90/2 35/91/2 37/92/2 38/93/2
f 38/94/3 37/95/3 39/96/3 40/97/3
f 40/98/4 39/99/4 34/100/4 33/101/4
f 36/102/5 38/103/5 40/104/5 33/105/5
f 37/106/6 35/107/6 34/108/6 39/109/6
f 41/110/1 42/111/1 43/112/1 44/113/1
f 44/114/2 43/115/2 45/116/2 46/117/2
f 46/118/3 45/119/3 47/120/3 48/121/3
f 48/122/4 47/123/4 42/124/4 41/125/4
f 44/114/5 46/117/5 48/122/5 41/125/5
f 45/126/6 43/127/6 42/128/6 47/129/6
f 49/130/1 50/131/1 51/132/1 52/133/1
f 52/134/2 51/135/2 53/136/2 54/137/2
f 54/138/3 53/139/3 55/140/3 56/141/3
f 56/142/4 55/143/4 50/144/4 49/145/4
f 52/146/5 54/137/5 56/147/5 49/148/5
f 53/149/6 51/150/6 50/144/6 55/143/6
f 57/151/1 58/152/1 59/153/1 60/154/1
f 60/155/2 59/156/2 61/157/2 62/158/2
f 62/159/3 61/160/3 63/161/3 64/162/3
f 64/163/4 63/164/4 58/165/4 57/166/4
f 60/167/5 62/168/5 64/169/5 57/170/5
f 61/171/6 59/172/6 58/173/6 63/161/6
f 65/174/1 66/175/1 67/176/1 68/177/1
f 68/178/2 67/179/2 69/180/2 70/181/2
f 70/182/3 69/183/3 71/184/3 72/185/3
f 72/186/4 71/187/4 66/188/4 65/189/4
f 68/190/5 70/191/5 72/192/5 65/193/5
f 69/194/6 67/195/6 66/196/6 71/197/6
f 73/198/1 74/199/1 75/200/1 76/201/1
f 76/202/2 75/203/2 77/204/2 78/205/2
f 78/206/3 77/207/3 79/208/3 80/209/3
f 80/210/4 79/211/4 74/212/4 73/213/4
f 76/214/5 78/215/5 80/216/5 73/217/5
f 77/218/6 75/219/6 74/220/6 79/221/6
f 81/222/1 82/223/1 83/224/1 84/225/1
f 84/226/2 83/227/2 85/228/2 86/229/2
f 86/230/3 85/231/3 87/232/3 88/233/3
f 88/234/4 87/235/4 82/236/4 81/237/4
f 84/238/5 86/239/5 88/240/5 81/241/5
f 85/242/6 83/243/6 82/244/6 87/235/6
f 133/245/1 90/246/1 91/247/1 134/248/1
f 134/249/2 91/250/2 93/251/2 135/252/2
f 135/253/3 93/254/3 95/255/3 136/256/3
f 136/257/4 95/258/4 90/259/4 133/260/4
f 92/261/5 94/262/5 96/263/5 89/264/5
f 93/265/6 91/266/6 90/259/6 95/267/6
f 137/268/1 98/269/1 99/270/1 138/271/1
f 138/272/2 99/273/2 101/274/2 139/275/2
f 139/276/3 101/277/3 103/278/3 140/279/3
f 140/280/4 103/281/4 98/282/4 137/283/4
f 100/284/5 102/285/5 104/286/5 97/287/5
f 101/288/6 99/289/6 98/282/6 103/290/6
f 96/291/4 136/292/4 133/293/4 89/294/4
f 94/295/3 135/296/3 136/297/3 96/298/3
f 92/299/2 134/300/2 135/301/2 94/302/2
f 89/303/1 133/304/1 134/305/1 92/306/1
f 104/307/4 140/308/4 137/309/4 97/310/4
f 102/311/3 139/312/3 140/313/3 104/314/3
f 100/315/2 138/316/2 139/317/2 102/318/2
f 97/319/1 137/320/1 138/321/1 100/322/1
f 141/323/1 142/324/1 144/325/1 143/326/1
f 143/327/2 144/328/2 148/329/2 147/330/2
f 147/331/3 148/332/3 146/333/3 145/334/3
f 145/335/4 146/336/4 142/337/4 141/338/4
f 143/339/5 147/340/5 145/341/5 141/342/5
f 148/343/6 144/344/6 142/345/6 146/346/6
f 149/347/1 150/348/1 152/349/1 151/350/1
f 151/351/2 152/352/2 156/353/2 155/354/2
f 155/355/3 156/356/3 154/357/3 153/358/3
f 153/359/4 154/360/4 150/361/4 149/362/4
f 151/363/5 155/355/5 153/358/5 149/364/5
f 156/365/6 152/366/6 150/361/6 154/360/6
f 157/367/1 158/368/1 160/369/1 159/370/1
f 159/371/2 160/372/2 164/373/2 163/374/2
f 163/375/3 164/376/3 162/377/3 161/378/3
f 161/379/4 162/380/4 158/381/4 157/382/4
f 159/383/5 163/375/5 161/378/5 157/384/5
f 164/373/6 160/372/6 158/385/6 162/386/6
s 1
f 105/387/7 106/388/8 107/389/9 108/390/10
f 108/390/10 107/389/9 109/391/11 110/392/12
f 110/393/12 109/394/11 111/395/13 112/396/14
f 112/396/14 111/395/13 106/388/8 105/387/7
f 108/397/10 110/398/12 112/399/14 105/400/7
f 109/401/11 107/402/9 106/403/8 111/404/13
f 129/405/15 114/406/8 115/407/9 130/408/16
f 130/409/16 115/410/9 117/411/11 131/412/17
f 131/413/17 117/414/11 119/415/13 132/416/18
f 132/417/18 119/418/13 114/419/8 129/420/15
f 116/421/10 118/422/12 120/423/14 113/424/7
f 117/425/11 115/426/9 114/427/8 119/428/13
f 121/429/7 122/430/8 123/431/9 124/432/10
f 124/433/10 123/434/9 125/435/11 126/436/12
f 126/437/12 125/438/11 127/439/13 128/440/14
f 128/441/14 127/442/13 122/443/8 121/444/7
f 124/445/10 126/446/12 128/447/14 121/444/7
f 125/448/11 123/449/9 122/450/8 127/451/13
f 120/452/14 132/453/18 129/454/15 113/455/7
f 118/456/12 131/457/17 132/458/18 120/459/14
f 116/460/10 130/409/16 131/412/17 118/461/12
f 113/462/7 129/463/15 130/464/16 116/465/10
