# Blender v2.82 (sub 7) OBJ File: 'scaffold.blend'
# www.blender.org
mtllib scaffold.mtl
o Cube.001
v -0.250000 0.000000 -0.187500
v -0.125000 0.437500 -0.250000
v -0.500000 -0.562500 0.500000
v -0.500000 0.500000 0.500000
v -0.500000 0.500000 -0.500000
v -0.500000 -0.562500 -0.500000
v 0.500000 0.500000 -0.500000
v 0.500000 -0.562500 -0.500000
v 0.500000 0.500000 0.500000
v 0.500000 -0.562500 0.500000
v -0.125000 -0.187500 0.250000
v 0.125000 0.375000 -0.187500
v 0.187500 0.000000 -0.187500
v 0.187500 0.062500 -0.125000
vt -0.000000 1.000000
vt 0.000000 0.000000
vt 1.000000 0.000000
vt 1.000000 1.000000
vt 0.000000 1.000000
vt -0.000000 0.000000
vt 1.000000 0.000000
vt 1.000000 1.000000
vt 0.000000 1.000000
vt -0.000000 -0.000000
vt 1.000000 -0.000000
vt 1.000000 1.000000
vt 0.000000 1.000000
vt -0.000000 0.000000
vt 1.000000 0.000000
vt 1.000000 1.000000
vt 0.000000 0.000000
vt 1.000000 0.000000
vt -0.000000 1.000000
vt 1.000000 1.000000
vn -1.0000 0.0000 0.0000
vn 0.0000 0.0000 -1.0000
vn 1.0000 0.0000 0.0000
vn 0.0000 -0.0000 1.0000
vn 0.0000 -1.0000 0.0000
vn 0.0000 1.0000 0.0000
usemtl None
s off
f 3/1/1 4/2/1 5/3/1 6/4/1
f 6/5/2 5/6/2 7/7/2 8/8/2
f 8/9/3 7/10/3 9/11/3 10/12/3
f 10/13/4 9/14/4 4/15/4 3/16/4
f 6/17/5 8/18/5 10/12/5 3/1/5
f 7/7/6 5/6/6 4/19/6 9/20/6
